<svg xmlns="http://www.w3.org/2000/svg" height="24" viewBox="0 -960 960 960" width="24"><path d="M460-300h40v-160h160v-40H500v-160h-40v160H300v40h160v160Zm20 180q-74.7 0-140.4-28.339-65.7-28.34-114.3-76.922-48.6-48.582-76.95-114.257Q120-405.194 120-479.866q0-74.673 28.339-140.41 28.34-65.737 76.922-114.365 48.582-48.627 114.257-76.993Q405.194-840 479.866-840q74.673 0 140.41 28.35t114.365 76.95q48.627 48.6 76.993 114.3Q840-554.7 840-480v295.385q0 26.654-18.981 45.634Q802.039-120 775.385-120H480Zm0-40q134 0 227-93t93-227q0-134-93-227t-227-93q-134 0-227 93t-93 227q0 134 93 227t227 93Zm0-320Z"/></svg>