<?xml version="1.0" encoding="utf-8"?>
<!-- Generator: Adobe Illustrator 27.7.0, SVG Export Plug-In . SVG Version: 6.00 Build 0)  -->
<svg version="1.1" id="Calque_1" xmlns="http://www.w3.org/2000/svg" xmlns:xlink="http://www.w3.org/1999/xlink" x="0px" y="0px"
	 viewBox="0 0 144 144" style="enable-background:new 0 0 144 144;" xml:space="preserve">
<style type="text/css">
	.st0{fill-rule:evenodd;clip-rule:evenodd;}
	.st1{fill-rule:evenodd;clip-rule:evenodd;fill:#FFFFFF;}
	.st2{fill:none;stroke:#FFFFFF;stroke-width:2.491;stroke-miterlimit:10;}
	.st3{fill:none;stroke:#FFFFFF;stroke-width:4.973;stroke-miterlimit:10;}
	.st4{fill:none;stroke:#000000;}
</style>
<g>
	<path class="st0" d="M88.3,3.2c38.1,9.1,61.6,47.3,52.5,85.4c-9.1,38.1-47.3,61.6-85.4,52.5C17.3,132.1-6.2,93.8,2.9,55.7
		C12,17.7,50.2-5.9,88.3,3.2z"/>
	<path class="st1" d="M71.8,65.9c11.2,0,20.3,9.2,20.3,20.6c0,11.3-9.1,20.6-20.3,20.6s-20.3-9.2-20.3-20.6
		C51.5,75.1,60.6,65.9,71.8,65.9z"/>
	<path class="st2" d="M33.3,52.4c0-21.3,17.2-38.6,38.4-38.6s38.4,17.3,38.4,38.6S92.9,91,71.7,91S33.3,73.7,33.3,52.4z"/>
	<path class="st3" d="M11.5,72.3c0-33,27-59.7,60.2-59.7c33.3,0,60.2,26.7,60.2,59.7s-27,59.7-60.2,59.7
		C38.5,131.9,11.5,105.2,11.5,72.3z"/>
	<path class="st4" d="M-56.3-109.3v36"/>
	<path class="st4" d="M-109.8-54.8h36"/>
	<path class="st4" d="M-109.8,200.2h36"/>
	<path class="st4" d="M-56.3,253.7v-36"/>
	<path class="st4" d="M199.7-109.3v36"/>
	<path class="st4" d="M253.2-54.8h-36"/>
	<path class="st4" d="M253.2,200.2h-36"/>
	<path class="st4" d="M199.7,253.7v-36"/>
</g>
</svg>
